<svg width="191" height="61" viewBox="0 0 191 61" fill="none" xmlns="http://www.w3.org/2000/svg">
<path d="M3.76 39V11H8.04L20.28 31.44H18.04L30.08 11H34.36L34.4 39H29.48L29.44 18.72H30.48L20.24 35.8H17.92L7.52 18.72H8.72V39H3.76ZM46.6031 32.4L46.3231 26.24L61.0031 11H66.8431L54.6431 23.96L51.7631 27.12L46.6031 32.4ZM41.9631 39V11H47.1631V39H41.9631ZM61.4831 39L50.7631 26.24L54.2031 22.44L67.5631 39H61.4831ZM79.1978 39.4C77.0111 39.4 74.9178 39.0933 72.9178 38.48C70.9178 37.84 69.3311 37.0267 68.1578 36.04L69.9578 32C71.0778 32.88 72.4645 33.6133 74.1178 34.2C75.7711 34.7867 77.4645 35.08 79.1978 35.08C80.6645 35.08 81.8511 34.92 82.7578 34.6C83.6645 34.28 84.3311 33.8533 84.7578 33.32C85.1845 32.76 85.3978 32.1333 85.3978 31.44C85.3978 30.5867 85.0911 29.9067 84.4778 29.4C83.8645 28.8667 83.0645 28.4533 82.0778 28.16C81.1178 27.84 80.0378 27.5467 78.8378 27.28C77.6645 27.0133 76.4778 26.7067 75.2778 26.36C74.1045 25.9867 73.0245 25.52 72.0378 24.96C71.0778 24.3733 70.2911 23.6 69.6778 22.64C69.0645 21.68 68.7578 20.4533 68.7578 18.96C68.7578 17.44 69.1578 16.0533 69.9578 14.8C70.7845 13.52 72.0245 12.5067 73.6778 11.76C75.3578 10.9867 77.4778 10.6 80.0378 10.6C81.7178 10.6 83.3845 10.8133 85.0378 11.24C86.6911 11.6667 88.1311 12.28 89.3578 13.08L87.7178 17.12C86.4645 16.3733 85.1711 15.8267 83.8378 15.48C82.5045 15.1067 81.2245 14.92 79.9978 14.92C78.5578 14.92 77.3845 15.0933 76.4778 15.44C75.5978 15.7867 74.9445 16.24 74.5178 16.8C74.1178 17.36 73.9178 18 73.9178 18.72C73.9178 19.5733 74.2111 20.2667 74.7978 20.8C75.4111 21.3067 76.1978 21.7067 77.1578 22C78.1445 22.2933 79.2378 22.5867 80.4378 22.88C81.6378 23.1467 82.8245 23.4533 83.9978 23.8C85.1978 24.1467 86.2778 24.6 87.2378 25.16C88.2245 25.72 89.0111 26.48 89.5978 27.44C90.2111 28.4 90.5178 29.6133 90.5178 31.08C90.5178 32.5733 90.1045 33.96 89.2778 35.24C88.4778 36.4933 87.2378 37.5067 85.5578 38.28C83.8778 39.0267 81.7578 39.4 79.1978 39.4Z" fill="white"/>
<path d="M107.12 36.1C106.08 36.1 105.093 35.9267 104.16 35.58C103.24 35.22 102.527 34.76 102.02 34.2L102.48 33.44C102.96 33.9333 103.613 34.3533 104.44 34.7C105.28 35.0333 106.167 35.2 107.1 35.2C108.033 35.2 108.793 35.08 109.38 34.84C109.98 34.5867 110.42 34.2533 110.7 33.84C110.993 33.4267 111.14 32.9667 111.14 32.46C111.14 31.86 110.98 31.38 110.66 31.02C110.34 30.66 109.92 30.3733 109.4 30.16C108.88 29.9467 108.313 29.7667 107.7 29.62C107.087 29.4733 106.467 29.32 105.84 29.16C105.213 28.9867 104.64 28.7667 104.12 28.5C103.6 28.2333 103.18 27.8733 102.86 27.42C102.553 26.9533 102.4 26.3533 102.4 25.62C102.4 24.9533 102.573 24.34 102.92 23.78C103.267 23.22 103.807 22.7667 104.54 22.42C105.273 22.0733 106.213 21.9 107.36 21.9C108.133 21.9 108.893 22.0133 109.64 22.24C110.4 22.4667 111.047 22.7733 111.58 23.16L111.2 23.98C110.613 23.58 109.98 23.2867 109.3 23.1C108.633 22.9 107.987 22.8 107.36 22.8C106.467 22.8 105.727 22.9267 105.14 23.18C104.553 23.4333 104.12 23.7733 103.84 24.2C103.56 24.6133 103.42 25.08 103.42 25.6C103.42 26.2 103.573 26.68 103.88 27.04C104.2 27.4 104.62 27.6867 105.14 27.9C105.66 28.1133 106.233 28.2933 106.86 28.44C107.487 28.5867 108.107 28.7467 108.72 28.92C109.333 29.08 109.9 29.2933 110.42 29.56C110.94 29.8267 111.36 30.1867 111.68 30.64C112 31.0933 112.16 31.68 112.16 32.4C112.16 33.0533 111.98 33.6667 111.62 34.24C111.26 34.8 110.707 35.2533 109.96 35.6C109.227 35.9333 108.28 36.1 107.12 36.1ZM115.308 36V25.56H116.308V36H115.308ZM115.808 23.02C115.581 23.02 115.388 22.94 115.228 22.78C115.068 22.62 114.988 22.4333 114.988 22.22C114.988 21.9933 115.068 21.8 115.228 21.64C115.388 21.48 115.581 21.4 115.808 21.4C116.048 21.4 116.241 21.48 116.388 21.64C116.548 21.7867 116.628 21.9733 116.628 22.2C116.628 22.4267 116.548 22.62 116.388 22.78C116.241 22.94 116.048 23.02 115.808 23.02ZM123.162 36.08C122.296 36.08 121.482 35.9533 120.722 35.7C119.976 35.4467 119.396 35.1267 118.982 34.74L119.442 33.94C119.842 34.2867 120.376 34.5867 121.042 34.84C121.709 35.08 122.429 35.2 123.202 35.2C124.296 35.2 125.082 35.02 125.562 34.66C126.042 34.3 126.282 33.8267 126.282 33.24C126.282 32.8133 126.156 32.48 125.902 32.24C125.662 31.9867 125.336 31.7933 124.922 31.66C124.509 31.5267 124.056 31.42 123.562 31.34C123.069 31.2467 122.576 31.1467 122.082 31.04C121.589 30.9333 121.136 30.78 120.722 30.58C120.309 30.38 119.976 30.1067 119.722 29.76C119.482 29.4 119.362 28.9267 119.362 28.34C119.362 27.8067 119.509 27.3267 119.802 26.9C120.096 26.4733 120.536 26.1333 121.122 25.88C121.709 25.6133 122.442 25.48 123.322 25.48C123.976 25.48 124.629 25.5733 125.282 25.76C125.949 25.9467 126.489 26.1933 126.902 26.5L126.442 27.3C126.002 26.9667 125.509 26.7267 124.962 26.58C124.416 26.4333 123.862 26.36 123.302 26.36C122.289 26.36 121.542 26.5467 121.062 26.92C120.596 27.2933 120.362 27.76 120.362 28.32C120.362 28.76 120.482 29.1133 120.722 29.38C120.976 29.6333 121.309 29.8333 121.722 29.98C122.136 30.1133 122.589 30.2267 123.082 30.32C123.576 30.4 124.069 30.4933 124.562 30.6C125.056 30.7067 125.509 30.86 125.922 31.06C126.336 31.2467 126.662 31.5133 126.902 31.86C127.156 32.1933 127.282 32.6467 127.282 33.22C127.282 33.7933 127.122 34.2933 126.802 34.72C126.496 35.1467 126.036 35.48 125.422 35.72C124.809 35.96 124.056 36.08 123.162 36.08ZM133.113 36.08C132.193 36.08 131.486 35.8267 130.993 35.32C130.513 34.8133 130.273 34.12 130.273 33.24V23.28H131.273V33.14C131.273 33.8067 131.44 34.32 131.773 34.68C132.106 35.04 132.586 35.22 133.213 35.22C133.866 35.22 134.406 35.0267 134.833 34.64L135.253 35.34C134.986 35.5933 134.66 35.78 134.273 35.9C133.9 36.02 133.513 36.08 133.113 36.08ZM128.353 26.42V25.56H134.593V26.42H128.353ZM141.911 36.08C140.857 36.08 139.924 35.8533 139.111 35.4C138.311 34.9467 137.677 34.32 137.211 33.52C136.757 32.72 136.531 31.8067 136.531 30.78C136.531 29.74 136.744 28.8267 137.171 28.04C137.611 27.24 138.211 26.6133 138.971 26.16C139.731 25.7067 140.584 25.48 141.531 25.48C142.477 25.48 143.324 25.7 144.071 26.14C144.831 26.58 145.424 27.2 145.851 28C146.291 28.7867 146.511 29.7 146.511 30.74C146.511 30.78 146.504 30.8267 146.491 30.88C146.491 30.92 146.491 30.9667 146.491 31.02H137.271V30.24H145.951L145.551 30.62C145.564 29.8067 145.391 29.08 145.031 28.44C144.684 27.7867 144.211 27.28 143.611 26.92C143.011 26.5467 142.317 26.36 141.531 26.36C140.757 26.36 140.064 26.5467 139.451 26.92C138.851 27.28 138.377 27.7867 138.031 28.44C137.684 29.08 137.511 29.8133 137.511 30.64V30.82C137.511 31.6733 137.697 32.4333 138.071 33.1C138.457 33.7533 138.984 34.2667 139.651 34.64C140.317 35 141.077 35.18 141.931 35.18C142.597 35.18 143.217 35.06 143.791 34.82C144.377 34.58 144.871 34.2133 145.271 33.72L145.851 34.38C145.397 34.94 144.824 35.3667 144.131 35.66C143.451 35.94 142.711 36.08 141.911 36.08ZM162.604 25.48C163.444 25.48 164.171 25.6467 164.784 25.98C165.411 26.3 165.898 26.7933 166.244 27.46C166.591 28.1133 166.764 28.9267 166.764 29.9V36H165.764V29.98C165.764 28.8067 165.478 27.9133 164.904 27.3C164.331 26.6867 163.531 26.38 162.504 26.38C161.718 26.38 161.038 26.5467 160.464 26.88C159.891 27.2133 159.451 27.68 159.144 28.28C158.838 28.88 158.684 29.6 158.684 30.44V36H157.684V29.98C157.684 28.8067 157.398 27.9133 156.824 27.3C156.251 26.6867 155.451 26.38 154.424 26.38C153.638 26.38 152.958 26.5467 152.384 26.88C151.811 27.2133 151.371 27.68 151.064 28.28C150.758 28.88 150.604 29.6 150.604 30.44V36H149.604V25.56H150.564V28.44L150.424 28.12C150.731 27.3067 151.244 26.6667 151.964 26.2C152.684 25.72 153.551 25.48 154.564 25.48C155.604 25.48 156.478 25.7467 157.184 26.28C157.904 26.8 158.358 27.58 158.544 28.62L158.204 28.48C158.484 27.5867 159.011 26.8667 159.784 26.32C160.558 25.76 161.498 25.48 162.604 25.48ZM177.473 36V33.62L177.433 33.26V29.34C177.433 28.3667 177.167 27.6267 176.633 27.12C176.113 26.6133 175.347 26.36 174.333 26.36C173.613 26.36 172.94 26.4867 172.313 26.74C171.7 26.98 171.173 27.2933 170.733 27.68L170.233 26.96C170.753 26.4933 171.38 26.1333 172.113 25.88C172.847 25.6133 173.613 25.48 174.413 25.48C175.707 25.48 176.7 25.8067 177.393 26.46C178.087 27.1133 178.433 28.0867 178.433 29.38V36H177.473ZM173.713 36.08C172.94 36.08 172.267 35.96 171.693 35.72C171.133 35.4667 170.7 35.1133 170.393 34.66C170.1 34.2067 169.953 33.6867 169.953 33.1C169.953 32.5667 170.073 32.0867 170.313 31.66C170.567 31.22 170.98 30.8667 171.553 30.6C172.127 30.32 172.893 30.18 173.853 30.18H177.693V30.96H173.873C172.793 30.96 172.033 31.16 171.593 31.56C171.167 31.96 170.953 32.46 170.953 33.06C170.953 33.7267 171.207 34.26 171.713 34.66C172.22 35.06 172.933 35.26 173.853 35.26C174.733 35.26 175.473 35.06 176.073 34.66C176.687 34.26 177.14 33.68 177.433 32.92L177.713 33.6C177.433 34.36 176.953 34.9667 176.273 35.42C175.607 35.86 174.753 36.08 173.713 36.08ZM185.194 36.08C184.327 36.08 183.514 35.9533 182.754 35.7C182.007 35.4467 181.427 35.1267 181.014 34.74L181.474 33.94C181.874 34.2867 182.407 34.5867 183.074 34.84C183.74 35.08 184.46 35.2 185.234 35.2C186.327 35.2 187.114 35.02 187.594 34.66C188.074 34.3 188.314 33.8267 188.314 33.24C188.314 32.8133 188.187 32.48 187.934 32.24C187.694 31.9867 187.367 31.7933 186.954 31.66C186.54 31.5267 186.087 31.42 185.594 31.34C185.1 31.2467 184.607 31.1467 184.114 31.04C183.62 30.9333 183.167 30.78 182.754 30.58C182.34 30.38 182.007 30.1067 181.754 29.76C181.514 29.4 181.394 28.9267 181.394 28.34C181.394 27.8067 181.54 27.3267 181.834 26.9C182.127 26.4733 182.567 26.1333 183.154 25.88C183.74 25.6133 184.474 25.48 185.354 25.48C186.007 25.48 186.66 25.5733 187.314 25.76C187.98 25.9467 188.52 26.1933 188.934 26.5L188.474 27.3C188.034 26.9667 187.54 26.7267 186.994 26.58C186.447 26.4333 185.894 26.36 185.334 26.36C184.32 26.36 183.574 26.5467 183.094 26.92C182.627 27.2933 182.394 27.76 182.394 28.32C182.394 28.76 182.514 29.1133 182.754 29.38C183.007 29.6333 183.34 29.8333 183.754 29.98C184.167 30.1133 184.62 30.2267 185.114 30.32C185.607 30.4 186.1 30.4933 186.594 30.6C187.087 30.7067 187.54 30.86 187.954 31.06C188.367 31.2467 188.694 31.5133 188.934 31.86C189.187 32.1933 189.314 32.6467 189.314 33.22C189.314 33.7933 189.154 34.2933 188.834 34.72C188.527 35.1467 188.067 35.48 187.454 35.72C186.84 35.96 186.087 36.08 185.194 36.08Z" fill="white"/>
</svg>
